<mxfile host="app.diagrams.net" modified="2024-05-15T08:59:20.361Z" agent="Mozilla/5.0 (X11; Ubuntu; Linux x86_64; rv:125.0) Gecko/20100101 Firefox/125.0" etag="sS3CIsug-JDezLq2NQAT" version="24.4.0" type="device">
  <diagram id="C5RBs43oDa-KdzZeNtuy" name="Page-1">
    <mxGraphModel dx="2316" dy="1184" grid="1" gridSize="10" guides="1" tooltips="1" connect="1" arrows="1" fold="1" page="1" pageScale="1" pageWidth="827" pageHeight="1169" math="0" shadow="0">
      <root>
        <mxCell id="WIyWlLk6GJQsqaUBKTNV-0" />
        <mxCell id="WIyWlLk6GJQsqaUBKTNV-1" parent="WIyWlLk6GJQsqaUBKTNV-0" />
        <mxCell id="ZrpL7Hcx2bXoiJu8Bz6u-1" value="&lt;div&gt;Alice&lt;/div&gt;&lt;div&gt;&lt;br&gt;&lt;/div&gt;" style="shape=umlActor;verticalLabelPosition=bottom;verticalAlign=top;html=1;outlineConnect=0;fontStyle=0" vertex="1" parent="WIyWlLk6GJQsqaUBKTNV-1">
          <mxGeometry x="30" y="690" width="30" height="60" as="geometry" />
        </mxCell>
        <mxCell id="ZrpL7Hcx2bXoiJu8Bz6u-4" value="Bob" style="html=1;outlineConnect=0;whiteSpace=wrap;fillColor=#ffff99;verticalLabelPosition=bottom;verticalAlign=top;align=center;shape=mxgraph.archimate3.actor;" vertex="1" parent="WIyWlLk6GJQsqaUBKTNV-1">
          <mxGeometry x="770" y="695" width="26.5" height="50" as="geometry" />
        </mxCell>
        <mxCell id="ZrpL7Hcx2bXoiJu8Bz6u-18" value="" style="rounded=0;whiteSpace=wrap;html=1;" vertex="1" parent="WIyWlLk6GJQsqaUBKTNV-1">
          <mxGeometry x="270" y="180" width="300" height="1060" as="geometry" />
        </mxCell>
        <mxCell id="ZrpL7Hcx2bXoiJu8Bz6u-19" value="Generate Key Pair" style="ellipse;whiteSpace=wrap;html=1;" vertex="1" parent="WIyWlLk6GJQsqaUBKTNV-1">
          <mxGeometry x="369.5" y="240" width="101" height="60" as="geometry" />
        </mxCell>
        <mxCell id="ZrpL7Hcx2bXoiJu8Bz6u-21" value="Relaying Platfrom" style="text;html=1;align=center;verticalAlign=middle;whiteSpace=wrap;rounded=0;fontSize=15;fontStyle=1" vertex="1" parent="WIyWlLk6GJQsqaUBKTNV-1">
          <mxGeometry x="350" y="120" width="140" height="30" as="geometry" />
        </mxCell>
        <mxCell id="ZrpL7Hcx2bXoiJu8Bz6u-22" value="Exchange Keys" style="ellipse;whiteSpace=wrap;html=1;" vertex="1" parent="WIyWlLk6GJQsqaUBKTNV-1">
          <mxGeometry x="370.5" y="330" width="100" height="70" as="geometry" />
        </mxCell>
        <mxCell id="ZrpL7Hcx2bXoiJu8Bz6u-23" value="Authenticate" style="ellipse;whiteSpace=wrap;html=1;" vertex="1" parent="WIyWlLk6GJQsqaUBKTNV-1">
          <mxGeometry x="363" y="430" width="115" height="70" as="geometry" />
        </mxCell>
        <mxCell id="ZrpL7Hcx2bXoiJu8Bz6u-24" value="Encrypt File" style="ellipse;whiteSpace=wrap;html=1;" vertex="1" parent="WIyWlLk6GJQsqaUBKTNV-1">
          <mxGeometry x="360" y="530" width="120" height="80" as="geometry" />
        </mxCell>
        <mxCell id="ZrpL7Hcx2bXoiJu8Bz6u-25" value="Sign File" style="ellipse;whiteSpace=wrap;html=1;" vertex="1" parent="WIyWlLk6GJQsqaUBKTNV-1">
          <mxGeometry x="363" y="660" width="120" height="80" as="geometry" />
        </mxCell>
        <mxCell id="ZrpL7Hcx2bXoiJu8Bz6u-26" value="Transmit File" style="ellipse;whiteSpace=wrap;html=1;" vertex="1" parent="WIyWlLk6GJQsqaUBKTNV-1">
          <mxGeometry x="363" y="770" width="120" height="80" as="geometry" />
        </mxCell>
        <mxCell id="ZrpL7Hcx2bXoiJu8Bz6u-27" value="Decrypt File" style="ellipse;whiteSpace=wrap;html=1;" vertex="1" parent="WIyWlLk6GJQsqaUBKTNV-1">
          <mxGeometry x="363" y="890" width="120" height="80" as="geometry" />
        </mxCell>
        <mxCell id="ZrpL7Hcx2bXoiJu8Bz6u-28" value="Verify Signature" style="ellipse;whiteSpace=wrap;html=1;" vertex="1" parent="WIyWlLk6GJQsqaUBKTNV-1">
          <mxGeometry x="363" y="1000" width="120" height="80" as="geometry" />
        </mxCell>
        <mxCell id="ZrpL7Hcx2bXoiJu8Bz6u-29" value="Download File" style="ellipse;whiteSpace=wrap;html=1;" vertex="1" parent="WIyWlLk6GJQsqaUBKTNV-1">
          <mxGeometry x="363" y="1120" width="120" height="80" as="geometry" />
        </mxCell>
        <mxCell id="ZrpL7Hcx2bXoiJu8Bz6u-31" value="" style="endArrow=classic;html=1;rounded=0;entryX=0.036;entryY=0.633;entryDx=0;entryDy=0;entryPerimeter=0;exitX=0.5;exitY=0.5;exitDx=0;exitDy=0;exitPerimeter=0;" edge="1" parent="WIyWlLk6GJQsqaUBKTNV-1" source="ZrpL7Hcx2bXoiJu8Bz6u-1" target="ZrpL7Hcx2bXoiJu8Bz6u-19">
          <mxGeometry width="50" height="50" relative="1" as="geometry">
            <mxPoint x="70" y="600" as="sourcePoint" />
            <mxPoint x="120" y="550" as="targetPoint" />
          </mxGeometry>
        </mxCell>
        <mxCell id="ZrpL7Hcx2bXoiJu8Bz6u-32" value="" style="endArrow=classic;html=1;rounded=0;entryX=0;entryY=0.5;entryDx=0;entryDy=0;exitX=0.5;exitY=0.5;exitDx=0;exitDy=0;exitPerimeter=0;" edge="1" parent="WIyWlLk6GJQsqaUBKTNV-1" source="ZrpL7Hcx2bXoiJu8Bz6u-1" target="ZrpL7Hcx2bXoiJu8Bz6u-24">
          <mxGeometry width="50" height="50" relative="1" as="geometry">
            <mxPoint x="90" y="600" as="sourcePoint" />
            <mxPoint x="140" y="550" as="targetPoint" />
          </mxGeometry>
        </mxCell>
        <mxCell id="ZrpL7Hcx2bXoiJu8Bz6u-33" value="" style="endArrow=classic;html=1;rounded=0;entryX=0;entryY=0.5;entryDx=0;entryDy=0;exitX=0.5;exitY=0.5;exitDx=0;exitDy=0;exitPerimeter=0;" edge="1" parent="WIyWlLk6GJQsqaUBKTNV-1" source="ZrpL7Hcx2bXoiJu8Bz6u-1" target="ZrpL7Hcx2bXoiJu8Bz6u-25">
          <mxGeometry width="50" height="50" relative="1" as="geometry">
            <mxPoint x="140" y="650" as="sourcePoint" />
            <mxPoint x="190" y="600" as="targetPoint" />
          </mxGeometry>
        </mxCell>
        <mxCell id="ZrpL7Hcx2bXoiJu8Bz6u-34" value="" style="endArrow=classic;html=1;rounded=0;entryX=0;entryY=0.45;entryDx=0;entryDy=0;entryPerimeter=0;exitX=0.98;exitY=0.633;exitDx=0;exitDy=0;exitPerimeter=0;" edge="1" parent="WIyWlLk6GJQsqaUBKTNV-1" source="ZrpL7Hcx2bXoiJu8Bz6u-19" target="ZrpL7Hcx2bXoiJu8Bz6u-4">
          <mxGeometry width="50" height="50" relative="1" as="geometry">
            <mxPoint x="490" y="640" as="sourcePoint" />
            <mxPoint x="540" y="590" as="targetPoint" />
          </mxGeometry>
        </mxCell>
        <mxCell id="ZrpL7Hcx2bXoiJu8Bz6u-35" value="" style="endArrow=classic;html=1;rounded=0;entryX=0;entryY=0.45;entryDx=0;entryDy=0;entryPerimeter=0;exitX=1;exitY=0.5;exitDx=0;exitDy=0;" edge="1" parent="WIyWlLk6GJQsqaUBKTNV-1" source="ZrpL7Hcx2bXoiJu8Bz6u-27" target="ZrpL7Hcx2bXoiJu8Bz6u-4">
          <mxGeometry width="50" height="50" relative="1" as="geometry">
            <mxPoint x="490" y="870" as="sourcePoint" />
            <mxPoint x="540" y="820" as="targetPoint" />
          </mxGeometry>
        </mxCell>
        <mxCell id="ZrpL7Hcx2bXoiJu8Bz6u-36" value="" style="endArrow=classic;html=1;rounded=0;exitX=0.967;exitY=0.363;exitDx=0;exitDy=0;exitPerimeter=0;entryX=0;entryY=0.45;entryDx=0;entryDy=0;entryPerimeter=0;" edge="1" parent="WIyWlLk6GJQsqaUBKTNV-1" source="ZrpL7Hcx2bXoiJu8Bz6u-28" target="ZrpL7Hcx2bXoiJu8Bz6u-4">
          <mxGeometry width="50" height="50" relative="1" as="geometry">
            <mxPoint x="490" y="870" as="sourcePoint" />
            <mxPoint x="540" y="820" as="targetPoint" />
          </mxGeometry>
        </mxCell>
        <mxCell id="ZrpL7Hcx2bXoiJu8Bz6u-46" value="" style="endArrow=classic;startArrow=classic;html=1;rounded=0;entryX=0.5;entryY=0;entryDx=0;entryDy=0;exitX=0.5;exitY=0;exitDx=0;exitDy=0;" edge="1" parent="WIyWlLk6GJQsqaUBKTNV-1" source="ZrpL7Hcx2bXoiJu8Bz6u-19" target="ZrpL7Hcx2bXoiJu8Bz6u-18">
          <mxGeometry width="50" height="50" relative="1" as="geometry">
            <mxPoint x="490" y="480" as="sourcePoint" />
            <mxPoint x="540" y="430" as="targetPoint" />
            <Array as="points" />
          </mxGeometry>
        </mxCell>
        <mxCell id="ZrpL7Hcx2bXoiJu8Bz6u-50" value="" style="endArrow=classic;startArrow=classic;html=1;rounded=0;entryX=0.5;entryY=1;entryDx=0;entryDy=0;exitX=0.5;exitY=0;exitDx=0;exitDy=0;" edge="1" parent="WIyWlLk6GJQsqaUBKTNV-1" source="ZrpL7Hcx2bXoiJu8Bz6u-22" target="ZrpL7Hcx2bXoiJu8Bz6u-19">
          <mxGeometry width="50" height="50" relative="1" as="geometry">
            <mxPoint x="420" y="320" as="sourcePoint" />
            <mxPoint x="540" y="490" as="targetPoint" />
          </mxGeometry>
        </mxCell>
        <mxCell id="ZrpL7Hcx2bXoiJu8Bz6u-53" value="" style="endArrow=classic;startArrow=classic;html=1;rounded=0;entryX=0.5;entryY=1;entryDx=0;entryDy=0;exitX=0.5;exitY=0;exitDx=0;exitDy=0;" edge="1" parent="WIyWlLk6GJQsqaUBKTNV-1" source="ZrpL7Hcx2bXoiJu8Bz6u-23" target="ZrpL7Hcx2bXoiJu8Bz6u-22">
          <mxGeometry width="50" height="50" relative="1" as="geometry">
            <mxPoint x="490" y="570" as="sourcePoint" />
            <mxPoint x="540" y="520" as="targetPoint" />
          </mxGeometry>
        </mxCell>
        <mxCell id="ZrpL7Hcx2bXoiJu8Bz6u-54" value="" style="endArrow=classic;startArrow=classic;html=1;rounded=0;entryX=0.5;entryY=1;entryDx=0;entryDy=0;exitX=0.5;exitY=0;exitDx=0;exitDy=0;" edge="1" parent="WIyWlLk6GJQsqaUBKTNV-1" source="ZrpL7Hcx2bXoiJu8Bz6u-24" target="ZrpL7Hcx2bXoiJu8Bz6u-23">
          <mxGeometry width="50" height="50" relative="1" as="geometry">
            <mxPoint x="490" y="570" as="sourcePoint" />
            <mxPoint x="540" y="520" as="targetPoint" />
          </mxGeometry>
        </mxCell>
        <mxCell id="ZrpL7Hcx2bXoiJu8Bz6u-55" value="" style="endArrow=classic;startArrow=classic;html=1;rounded=0;entryX=0.5;entryY=0.406;entryDx=0;entryDy=0;entryPerimeter=0;exitX=0.5;exitY=0;exitDx=0;exitDy=0;" edge="1" parent="WIyWlLk6GJQsqaUBKTNV-1" source="ZrpL7Hcx2bXoiJu8Bz6u-25" target="ZrpL7Hcx2bXoiJu8Bz6u-18">
          <mxGeometry width="50" height="50" relative="1" as="geometry">
            <mxPoint x="490" y="730" as="sourcePoint" />
            <mxPoint x="540" y="680" as="targetPoint" />
          </mxGeometry>
        </mxCell>
        <mxCell id="ZrpL7Hcx2bXoiJu8Bz6u-56" value="" style="endArrow=classic;startArrow=classic;html=1;rounded=0;entryX=0.5;entryY=1;entryDx=0;entryDy=0;exitX=0.5;exitY=0;exitDx=0;exitDy=0;" edge="1" parent="WIyWlLk6GJQsqaUBKTNV-1" source="ZrpL7Hcx2bXoiJu8Bz6u-26" target="ZrpL7Hcx2bXoiJu8Bz6u-25">
          <mxGeometry width="50" height="50" relative="1" as="geometry">
            <mxPoint x="490" y="730" as="sourcePoint" />
            <mxPoint x="540" y="680" as="targetPoint" />
          </mxGeometry>
        </mxCell>
        <mxCell id="ZrpL7Hcx2bXoiJu8Bz6u-57" value="" style="endArrow=classic;startArrow=classic;html=1;rounded=0;entryX=0.5;entryY=1;entryDx=0;entryDy=0;exitX=0.5;exitY=0;exitDx=0;exitDy=0;" edge="1" parent="WIyWlLk6GJQsqaUBKTNV-1" source="ZrpL7Hcx2bXoiJu8Bz6u-27" target="ZrpL7Hcx2bXoiJu8Bz6u-26">
          <mxGeometry width="50" height="50" relative="1" as="geometry">
            <mxPoint x="490" y="760" as="sourcePoint" />
            <mxPoint x="540" y="710" as="targetPoint" />
          </mxGeometry>
        </mxCell>
        <mxCell id="ZrpL7Hcx2bXoiJu8Bz6u-58" value="" style="endArrow=classic;startArrow=classic;html=1;rounded=0;entryX=0.5;entryY=1;entryDx=0;entryDy=0;exitX=0.5;exitY=0;exitDx=0;exitDy=0;" edge="1" parent="WIyWlLk6GJQsqaUBKTNV-1" source="ZrpL7Hcx2bXoiJu8Bz6u-28" target="ZrpL7Hcx2bXoiJu8Bz6u-27">
          <mxGeometry width="50" height="50" relative="1" as="geometry">
            <mxPoint x="490" y="980" as="sourcePoint" />
            <mxPoint x="540" y="930" as="targetPoint" />
          </mxGeometry>
        </mxCell>
        <mxCell id="ZrpL7Hcx2bXoiJu8Bz6u-59" value="" style="endArrow=classic;startArrow=classic;html=1;rounded=0;entryX=0.5;entryY=1;entryDx=0;entryDy=0;exitX=0.5;exitY=0;exitDx=0;exitDy=0;" edge="1" parent="WIyWlLk6GJQsqaUBKTNV-1" source="ZrpL7Hcx2bXoiJu8Bz6u-29" target="ZrpL7Hcx2bXoiJu8Bz6u-28">
          <mxGeometry width="50" height="50" relative="1" as="geometry">
            <mxPoint x="490" y="1140" as="sourcePoint" />
            <mxPoint x="540" y="1090" as="targetPoint" />
          </mxGeometry>
        </mxCell>
        <mxCell id="ZrpL7Hcx2bXoiJu8Bz6u-60" value="" style="endArrow=classic;startArrow=classic;html=1;rounded=0;entryX=0.5;entryY=1;entryDx=0;entryDy=0;" edge="1" parent="WIyWlLk6GJQsqaUBKTNV-1" source="ZrpL7Hcx2bXoiJu8Bz6u-18" target="ZrpL7Hcx2bXoiJu8Bz6u-29">
          <mxGeometry width="50" height="50" relative="1" as="geometry">
            <mxPoint x="420" y="1240" as="sourcePoint" />
            <mxPoint x="540" y="1090" as="targetPoint" />
          </mxGeometry>
        </mxCell>
        <mxCell id="ZrpL7Hcx2bXoiJu8Bz6u-61" value="&lt;h3 style=&quot;font-size: 16px;&quot;&gt;Use Case Diagram&lt;/h3&gt;&lt;p style=&quot;font-size: 16px;&quot;&gt;The Use Case Diagram depicts the interactions between actors (Alice, Bob) and the system (Relaying Platform). It should include the following:&lt;/p&gt;&lt;ul style=&quot;font-size: 16px;&quot;&gt;&lt;li style=&quot;font-size: 16px;&quot;&gt;&lt;strong style=&quot;font-size: 16px;&quot;&gt;Actors&lt;/strong&gt;: Alice, Bob&lt;/li&gt;&lt;li style=&quot;font-size: 16px;&quot;&gt;&lt;strong style=&quot;font-size: 16px;&quot;&gt;Use Cases&lt;/strong&gt;:&lt;ul style=&quot;font-size: 16px;&quot;&gt;&lt;li style=&quot;font-size: 16px;&quot;&gt;Upload File (Alice)&lt;/li&gt;&lt;li style=&quot;font-size: 16px;&quot;&gt;Encrypt File (System)&lt;/li&gt;&lt;li style=&quot;font-size: 16px;&quot;&gt;Transmit File (System)&lt;/li&gt;&lt;li style=&quot;font-size: 16px;&quot;&gt;Decrypt File (System)&lt;/li&gt;&lt;li style=&quot;font-size: 16px;&quot;&gt;Download File (Bob)&lt;/li&gt;&lt;/ul&gt;&lt;/li&gt;&lt;/ul&gt;" style="text;html=1;whiteSpace=wrap;overflow=hidden;rounded=0;fontSize=16;" vertex="1" parent="WIyWlLk6GJQsqaUBKTNV-1">
          <mxGeometry x="110" y="1310" width="660" height="270" as="geometry" />
        </mxCell>
      </root>
    </mxGraphModel>
  </diagram>
</mxfile>
